<svg width="177" height="168" viewBox="0 0 177 168" fill="none" xmlns="http://www.w3.org/2000/svg">
<path d="M27.2188 130.203L30.6406 124.695C31.7188 125.57 32.7578 126.289 33.7578 126.852C34.7734 127.398 35.7734 127.805 36.7578 128.07C37.7422 128.32 38.75 128.445 39.7812 128.445C41 128.445 42.0547 128.273 42.9453 127.93C43.8359 127.586 44.5234 127.094 45.0078 126.453C45.5078 125.812 45.7578 125.07 45.7578 124.227C45.7578 123.242 45.4453 122.414 44.8203 121.742C44.1953 121.07 43.375 120.484 42.3594 119.984C41.3594 119.469 40.2734 118.977 39.1016 118.508C37.9609 118.039 36.8125 117.531 35.6562 116.984C34.5156 116.422 33.4609 115.758 32.4922 114.992C31.5391 114.227 30.7656 113.297 30.1719 112.203C29.5938 111.094 29.3047 109.75 29.3047 108.172C29.3047 106.109 29.8203 104.328 30.8516 102.828C31.8984 101.328 33.3281 100.172 35.1406 99.3594C36.9531 98.5469 39.0234 98.1406 41.3516 98.1406C42.9922 98.1406 44.6953 98.3594 46.4609 98.7969C48.2422 99.2344 50.0156 99.8984 51.7812 100.789L48.9453 106.625C47.8359 105.953 46.6406 105.422 45.3594 105.031C44.0781 104.641 42.875 104.445 41.75 104.445C40.7344 104.445 39.8438 104.602 39.0781 104.914C38.3281 105.227 37.7422 105.664 37.3203 106.227C36.8984 106.773 36.6875 107.422 36.6875 108.172C36.6875 109.062 36.9922 109.836 37.6016 110.492C38.2109 111.133 39 111.703 39.9688 112.203C40.9531 112.703 42.0078 113.203 43.1328 113.703C44.2891 114.203 45.4531 114.75 46.625 115.344C47.8125 115.938 48.8906 116.641 49.8594 117.453C50.8438 118.25 51.6328 119.211 52.2266 120.336C52.8359 121.445 53.1406 122.781 53.1406 124.344C53.1406 126.406 52.5938 128.219 51.5 129.781C50.4062 131.328 48.8828 132.539 46.9297 133.414C44.9766 134.273 42.7031 134.703 40.1094 134.703C37.7344 134.703 35.4609 134.32 33.2891 133.555C31.1172 132.789 29.0938 131.672 27.2188 130.203ZM57.6875 134V98.8438H70.6953C74.4766 98.8438 77.4062 99.6484 79.4844 101.258C81.5781 102.852 82.625 105.094 82.625 107.984C82.625 109.75 82.2109 111.312 81.3828 112.672C80.5547 114.016 79.4375 115.039 78.0312 115.742C80.0312 116.336 81.5859 117.359 82.6953 118.812C83.8203 120.25 84.3828 122.016 84.3828 124.109C84.3828 126.109 83.8906 127.852 82.9062 129.336C81.9375 130.805 80.5625 131.953 78.7812 132.781C77.0156 133.594 74.9375 134 72.5469 134H57.6875ZM64.9062 113.562H70.2969C71.9062 113.562 73.1797 113.18 74.1172 112.414C75.0547 111.648 75.5234 110.609 75.5234 109.297C75.5234 108.016 75.0469 107.008 74.0938 106.273C73.1562 105.523 71.8516 105.148 70.1797 105.148H64.9062V113.562ZM64.9062 127.695H70.7422C72.0234 127.695 73.1328 127.516 74.0703 127.156C75.0078 126.781 75.7266 126.258 76.2266 125.586C76.7422 124.898 77 124.102 77 123.195C77 122.289 76.7656 121.516 76.2969 120.875C75.8438 120.234 75.1797 119.75 74.3047 119.422C73.4297 119.078 72.3906 118.906 71.1875 118.906H64.9062V127.695ZM117.172 134H109.18L101.797 121.297H95.9844V134H88.7656V98.8438H102.125C104.953 98.8438 107.375 99.2891 109.391 100.18C111.406 101.07 112.945 102.359 114.008 104.047C115.086 105.719 115.625 107.727 115.625 110.07C115.625 112.477 115.055 114.531 113.914 116.234C112.789 117.922 111.18 119.188 109.086 120.031L117.172 134ZM95.9844 115.555H101.586C103.727 115.555 105.367 115.109 106.508 114.219C107.664 113.312 108.242 112.023 108.242 110.352C108.242 108.68 107.664 107.398 106.508 106.508C105.367 105.602 103.727 105.148 101.586 105.148H95.9844V115.555ZM121.016 134V98.8438H133.039C135.992 98.8438 138.539 99.3281 140.68 100.297C142.836 101.25 144.492 102.617 145.648 104.398C146.805 106.164 147.383 108.273 147.383 110.727C147.383 113.18 146.805 115.305 145.648 117.102C144.492 118.883 142.844 120.258 140.703 121.227C138.578 122.195 136.047 122.68 133.109 122.68H128.234V134H121.016ZM128.234 116.352H132.359C134.812 116.352 136.695 115.867 138.008 114.898C139.336 113.914 140 112.523 140 110.727C140 108.961 139.336 107.594 138.008 106.625C136.695 105.641 134.812 105.148 132.359 105.148H128.234V116.352Z" fill="#092F8C"/>
<path d="M131 43C131 66.7482 111.748 86 88 86C64.2518 86 45 66.7482 45 43C45 19.2518 64.2518 0 88 0C111.748 0 131 19.2518 131 43Z" fill="#0970FF"/>
<path fill-rule="evenodd" clip-rule="evenodd" d="M129.196 55.365C123.884 73.0863 107.45 86 88.0001 86C73.3314 86 60.3782 78.655 52.6177 67.4422C58.5915 61.8858 70.0811 57.4803 89.0001 63.5C109.345 69.9735 122.484 62.8069 129.196 55.365Z" fill="#092F8C"/>
<path fill-rule="evenodd" clip-rule="evenodd" d="M48.9449 61.0164C52.9237 54.0287 64.9678 44.8534 89 52.5C111.349 59.611 125.003 50.2631 130.992 42.1711C130.55 18.8054 111.471 0 88 0C64.2518 0 45 19.2518 45 43C45 49.4332 46.4127 55.5365 48.9449 61.0164Z" fill="#004AFF"/>
<path d="M70 30.3161C70 40.4316 89.0031 69 89.0031 69C89.0031 69 107 40.4316 107 30.3161C107 20.2004 98.717 12 88.4998 12C78.2826 12 70 20.2004 70 30.3161Z" fill="#092F8C"/>
<circle cx="88.5" cy="27.5" r="7.5" fill="#0970FF"/>
<path d="M17.6719 160H15.3906L15.25 157.719C14.5312 158.521 13.6562 159.156 12.625 159.625C11.5938 160.083 10.4688 160.312 9.25 160.312C7.70833 160.312 6.32812 159.958 5.10938 159.25C3.89062 158.542 2.92708 157.573 2.21875 156.344C1.52083 155.115 1.17188 153.729 1.17188 152.188C1.17188 150.635 1.52083 149.25 2.21875 148.031C2.92708 146.802 3.89062 145.833 5.10938 145.125C6.32812 144.417 7.70833 144.062 9.25 144.062C10.4271 144.062 11.5156 144.276 12.5156 144.703C13.526 145.13 14.3906 145.724 15.1094 146.484V136.562H17.6719V160ZM9.46875 158C10.5104 158 11.4583 157.76 12.3125 157.281C13.1667 156.792 13.8438 156.13 14.3438 155.297C14.8542 154.453 15.1094 153.5 15.1094 152.438V151.906C15.1094 150.844 14.8542 149.896 14.3438 149.062C13.8438 148.219 13.1667 147.557 12.3125 147.078C11.4583 146.599 10.5104 146.359 9.46875 146.359C8.38542 146.359 7.41667 146.615 6.5625 147.125C5.70833 147.635 5.03125 148.328 4.53125 149.203C4.04167 150.078 3.79688 151.068 3.79688 152.172C3.79688 153.276 4.04167 154.271 4.53125 155.156C5.03125 156.031 5.70833 156.724 6.5625 157.234C7.41667 157.745 8.38542 158 9.46875 158ZM36.2188 158.078C34.2812 159.568 32.1458 160.312 29.8125 160.312C28.1875 160.312 26.7292 159.948 25.4375 159.219C24.1458 158.49 23.125 157.5 22.375 156.25C21.6354 154.99 21.2656 153.568 21.2656 151.984C21.2656 150.464 21.6094 149.109 22.2969 147.922C22.9844 146.724 23.9271 145.781 25.125 145.094C26.3229 144.406 27.6823 144.062 29.2031 144.062C30.7656 144.062 32.1406 144.438 33.3281 145.188C34.526 145.938 35.4583 146.979 36.125 148.312C36.7917 149.646 37.125 151.188 37.125 152.938V153.438H24.0469C24.2344 154.354 24.6094 155.151 25.1719 155.828C25.7448 156.505 26.4531 157.031 27.2969 157.406C28.1406 157.781 29.0833 157.969 30.125 157.969C31.9167 157.969 33.5521 157.38 35.0312 156.203L36.2188 158.078ZM23.9531 151.25H34.7031C34.5885 150.281 34.2865 149.438 33.7969 148.719C33.3177 147.99 32.6927 147.422 31.9219 147.016C31.1615 146.609 30.3021 146.406 29.3438 146.406C28.375 146.406 27.5 146.609 26.7188 147.016C25.9479 147.422 25.3177 147.99 24.8281 148.719C24.349 149.438 24.0573 150.281 23.9531 151.25ZM54.6406 144.375L48.0625 160H45.5781L39.0156 144.375H41.7812L46.8438 157.312L51.9219 144.375H54.6406ZM90.7812 160H88.2188V151.672C88.2188 149.995 87.849 148.693 87.1094 147.766C86.3802 146.828 85.349 146.359 84.0156 146.359C82.6719 146.359 81.6146 146.833 80.8438 147.781C80.0833 148.719 79.7031 150.016 79.7031 151.672V160H77.1406V151.672C77.1406 149.995 76.7708 148.693 76.0312 147.766C75.2917 146.828 74.2552 146.359 72.9219 146.359C71.5781 146.359 70.5208 146.833 69.75 147.781C68.9896 148.719 68.6094 150.016 68.6094 151.672V160H66.0469V144.375H68.1406L68.25 147.172C68.7708 146.151 69.4792 145.38 70.375 144.859C71.2812 144.328 72.349 144.062 73.5781 144.062C74.8906 144.062 76.0104 144.359 76.9375 144.953C77.875 145.536 78.5729 146.375 79.0312 147.469C79.5417 146.354 80.2656 145.51 81.2031 144.938C82.151 144.354 83.2812 144.062 84.5938 144.062C86.5417 144.062 88.0573 144.682 89.1406 145.922C90.2344 147.151 90.7812 148.87 90.7812 151.078V160ZM102.266 160.312C100.714 160.312 99.3177 159.958 98.0781 159.25C96.8385 158.542 95.8594 157.578 95.1406 156.359C94.4323 155.13 94.0781 153.74 94.0781 152.188C94.0781 150.646 94.4323 149.266 95.1406 148.047C95.8594 146.818 96.8385 145.849 98.0781 145.141C99.3177 144.422 100.714 144.062 102.266 144.062C103.818 144.062 105.208 144.422 106.438 145.141C107.667 145.849 108.635 146.818 109.344 148.047C110.052 149.266 110.406 150.646 110.406 152.188C110.406 153.74 110.052 155.13 109.344 156.359C108.635 157.578 107.667 158.542 106.438 159.25C105.208 159.958 103.818 160.312 102.266 160.312ZM102.25 158C103.302 158 104.245 157.745 105.078 157.234C105.911 156.724 106.568 156.031 107.047 155.156C107.536 154.281 107.781 153.286 107.781 152.172C107.781 151.078 107.536 150.094 107.047 149.219C106.568 148.344 105.911 147.651 105.078 147.141C104.245 146.63 103.302 146.375 102.25 146.375C101.198 146.375 100.25 146.63 99.4062 147.141C98.5729 147.651 97.9115 148.344 97.4219 149.219C96.9427 150.094 96.7031 151.078 96.7031 152.172C96.7031 153.286 96.9427 154.281 97.4219 155.156C97.9115 156.031 98.5729 156.724 99.4062 157.234C100.25 157.745 101.198 158 102.25 158ZM129.266 160H126.984L126.844 157.719C126.125 158.521 125.25 159.156 124.219 159.625C123.188 160.083 122.062 160.312 120.844 160.312C119.302 160.312 117.922 159.958 116.703 159.25C115.484 158.542 114.521 157.573 113.812 156.344C113.115 155.115 112.766 153.729 112.766 152.188C112.766 150.635 113.115 149.25 113.812 148.031C114.521 146.802 115.484 145.833 116.703 145.125C117.922 144.417 119.302 144.062 120.844 144.062C122.021 144.062 123.109 144.276 124.109 144.703C125.12 145.13 125.984 145.724 126.703 146.484V136.562H129.266V160ZM121.062 158C122.104 158 123.052 157.76 123.906 157.281C124.76 156.792 125.438 156.13 125.938 155.297C126.448 154.453 126.703 153.5 126.703 152.438V151.906C126.703 150.844 126.448 149.896 125.938 149.062C125.438 148.219 124.76 147.557 123.906 147.078C123.052 146.599 122.104 146.359 121.062 146.359C119.979 146.359 119.01 146.615 118.156 147.125C117.302 147.635 116.625 148.328 116.125 149.203C115.635 150.078 115.391 151.068 115.391 152.172C115.391 153.276 115.635 154.271 116.125 155.156C116.625 156.031 117.302 156.724 118.156 157.234C119.01 157.745 119.979 158 121.062 158ZM148.422 160H146.172L146.078 157.469C145.505 158.385 144.75 159.089 143.812 159.578C142.885 160.068 141.786 160.312 140.516 160.312C138.443 160.312 136.802 159.688 135.594 158.438C134.396 157.177 133.797 155.458 133.797 153.281V144.375H136.359V153.094C136.359 154.573 136.776 155.755 137.609 156.641C138.453 157.526 139.573 157.969 140.969 157.969C142.427 157.969 143.604 157.49 144.5 156.531C145.406 155.573 145.859 154.323 145.859 152.781V144.375H148.422V160ZM155.984 160H153.266V135.938H155.984V160ZM174.531 158.078C172.594 159.568 170.458 160.312 168.125 160.312C166.5 160.312 165.042 159.948 163.75 159.219C162.458 158.49 161.438 157.5 160.688 156.25C159.948 154.99 159.578 153.568 159.578 151.984C159.578 150.464 159.922 149.109 160.609 147.922C161.297 146.724 162.24 145.781 163.438 145.094C164.635 144.406 165.995 144.062 167.516 144.062C169.078 144.062 170.453 144.438 171.641 145.188C172.839 145.938 173.771 146.979 174.438 148.312C175.104 149.646 175.438 151.188 175.438 152.938V153.438H162.359C162.547 154.354 162.922 155.151 163.484 155.828C164.057 156.505 164.766 157.031 165.609 157.406C166.453 157.781 167.396 157.969 168.438 157.969C170.229 157.969 171.865 157.38 173.344 156.203L174.531 158.078ZM162.266 151.25H173.016C172.901 150.281 172.599 149.438 172.109 148.719C171.63 147.99 171.005 147.422 170.234 147.016C169.474 146.609 168.615 146.406 167.656 146.406C166.688 146.406 165.812 146.609 165.031 147.016C164.26 147.422 163.63 147.99 163.141 148.719C162.661 149.438 162.37 150.281 162.266 151.25Z" fill="#004AFF"/>
</svg>
